<mxfile host="app.diagrams.net" modified="2023-06-23T10:08:34.931Z" agent="Mozilla/5.0 (X11; Linux x86_64) AppleWebKit/537.36 (KHTML, like Gecko) Chrome/114.0.0.0 Safari/537.36" etag="VPE61ZnpPuryklCVw3jV" version="21.5.0" type="device">
  <diagram name="Page-1" id="ymAlvZ4ARYmAYaTjUBIb">
    <mxGraphModel dx="839" dy="642" grid="1" gridSize="10" guides="1" tooltips="1" connect="1" arrows="1" fold="1" page="1" pageScale="1" pageWidth="850" pageHeight="1100" math="0" shadow="0">
      <root>
        <mxCell id="0" />
        <mxCell id="1" parent="0" />
        <mxCell id="XVl3DY80ZeD2PCHIH6-f-5" value="" style="rounded=1;whiteSpace=wrap;html=1;fillColor=#ffff88;strokeColor=#36393d;" vertex="1" parent="1">
          <mxGeometry x="221" y="214" width="150" height="116" as="geometry" />
        </mxCell>
        <mxCell id="-OaruQe1PYp4TrqZhlhv-1" value="1" style="rounded=1;whiteSpace=wrap;html=1;" parent="1" vertex="1">
          <mxGeometry x="240" y="230" width="20" height="60" as="geometry" />
        </mxCell>
        <mxCell id="XVl3DY80ZeD2PCHIH6-f-1" value="6" style="rounded=1;whiteSpace=wrap;html=1;" vertex="1" parent="1">
          <mxGeometry x="270" y="230" width="20" height="60" as="geometry" />
        </mxCell>
        <mxCell id="XVl3DY80ZeD2PCHIH6-f-3" value="27" style="rounded=1;whiteSpace=wrap;html=1;" vertex="1" parent="1">
          <mxGeometry x="330" y="230" width="20" height="60" as="geometry" />
        </mxCell>
        <mxCell id="XVl3DY80ZeD2PCHIH6-f-4" value="..." style="text;html=1;strokeColor=none;fillColor=none;align=center;verticalAlign=middle;whiteSpace=wrap;rounded=0;" vertex="1" parent="1">
          <mxGeometry x="280" y="245" width="60" height="30" as="geometry" />
        </mxCell>
        <mxCell id="XVl3DY80ZeD2PCHIH6-f-6" value="" style="rounded=1;whiteSpace=wrap;html=1;fillColor=#ffff88;strokeColor=#36393d;" vertex="1" parent="1">
          <mxGeometry x="425" y="212.5" width="150" height="117.5" as="geometry" />
        </mxCell>
        <mxCell id="XVl3DY80ZeD2PCHIH6-f-7" value="59" style="rounded=1;whiteSpace=wrap;html=1;" vertex="1" parent="1">
          <mxGeometry x="444" y="228.5" width="20" height="60" as="geometry" />
        </mxCell>
        <mxCell id="XVl3DY80ZeD2PCHIH6-f-8" value="74" style="rounded=1;whiteSpace=wrap;html=1;" vertex="1" parent="1">
          <mxGeometry x="474" y="228.5" width="20" height="60" as="geometry" />
        </mxCell>
        <mxCell id="XVl3DY80ZeD2PCHIH6-f-9" value="99" style="rounded=1;whiteSpace=wrap;html=1;" vertex="1" parent="1">
          <mxGeometry x="534" y="228.5" width="20" height="60" as="geometry" />
        </mxCell>
        <mxCell id="XVl3DY80ZeD2PCHIH6-f-10" value="..." style="text;html=1;strokeColor=none;fillColor=none;align=center;verticalAlign=middle;whiteSpace=wrap;rounded=0;" vertex="1" parent="1">
          <mxGeometry x="490" y="243.5" width="44" height="30" as="geometry" />
        </mxCell>
        <mxCell id="XVl3DY80ZeD2PCHIH6-f-11" value="..." style="text;html=1;strokeColor=none;fillColor=none;align=center;verticalAlign=middle;whiteSpace=wrap;rounded=0;" vertex="1" parent="1">
          <mxGeometry x="369" y="245" width="60" height="30" as="geometry" />
        </mxCell>
        <mxCell id="XVl3DY80ZeD2PCHIH6-f-12" value="Chunk 1" style="text;html=1;strokeColor=none;fillColor=none;align=center;verticalAlign=middle;whiteSpace=wrap;rounded=0;" vertex="1" parent="1">
          <mxGeometry x="266" y="300" width="60" height="30" as="geometry" />
        </mxCell>
        <mxCell id="XVl3DY80ZeD2PCHIH6-f-13" value="Chunk N" style="text;html=1;strokeColor=none;fillColor=none;align=center;verticalAlign=middle;whiteSpace=wrap;rounded=0;" vertex="1" parent="1">
          <mxGeometry x="474" y="300" width="60" height="30" as="geometry" />
        </mxCell>
        <mxCell id="XVl3DY80ZeD2PCHIH6-f-16" style="edgeStyle=orthogonalEdgeStyle;rounded=0;orthogonalLoop=1;jettySize=auto;html=1;entryX=0.5;entryY=0;entryDx=0;entryDy=0;exitX=0.75;exitY=0;exitDx=0;exitDy=0;" edge="1" parent="1" source="XVl3DY80ZeD2PCHIH6-f-14" target="XVl3DY80ZeD2PCHIH6-f-5">
          <mxGeometry relative="1" as="geometry" />
        </mxCell>
        <mxCell id="XVl3DY80ZeD2PCHIH6-f-17" style="edgeStyle=orthogonalEdgeStyle;rounded=0;orthogonalLoop=1;jettySize=auto;html=1;entryX=0.5;entryY=0;entryDx=0;entryDy=0;exitX=0.5;exitY=0;exitDx=0;exitDy=0;" edge="1" parent="1" source="XVl3DY80ZeD2PCHIH6-f-14" target="XVl3DY80ZeD2PCHIH6-f-6">
          <mxGeometry relative="1" as="geometry">
            <Array as="points">
              <mxPoint x="115" y="170" />
              <mxPoint x="500" y="170" />
            </Array>
          </mxGeometry>
        </mxCell>
        <mxCell id="XVl3DY80ZeD2PCHIH6-f-14" value="" style="rounded=1;whiteSpace=wrap;html=1;" vertex="1" parent="1">
          <mxGeometry x="40" y="214" width="150" height="116" as="geometry" />
        </mxCell>
        <mxCell id="XVl3DY80ZeD2PCHIH6-f-15" value="Chunk Index" style="text;html=1;strokeColor=none;fillColor=none;align=center;verticalAlign=middle;whiteSpace=wrap;rounded=0;" vertex="1" parent="1">
          <mxGeometry x="77.5" y="296.25" width="75" height="37.5" as="geometry" />
        </mxCell>
        <mxCell id="XVl3DY80ZeD2PCHIH6-f-19" value="" style="endArrow=baseDash;startArrow=baseDash;html=1;rounded=0;dashed=1;startFill=0;endFill=0;" edge="1" parent="1">
          <mxGeometry width="50" height="50" relative="1" as="geometry">
            <mxPoint x="220" y="360" as="sourcePoint" />
            <mxPoint x="370" y="360" as="targetPoint" />
          </mxGeometry>
        </mxCell>
        <mxCell id="XVl3DY80ZeD2PCHIH6-f-20" value="Chunk Size" style="edgeLabel;html=1;align=center;verticalAlign=middle;resizable=0;points=[];" vertex="1" connectable="0" parent="XVl3DY80ZeD2PCHIH6-f-19">
          <mxGeometry x="-0.1267" y="2" relative="1" as="geometry">
            <mxPoint x="1" as="offset" />
          </mxGeometry>
        </mxCell>
        <mxCell id="XVl3DY80ZeD2PCHIH6-f-21" value="1-27: Chunk 1&lt;br&gt;...&lt;br&gt;59-99: Chunk N" style="text;html=1;strokeColor=none;fillColor=none;align=left;verticalAlign=middle;whiteSpace=wrap;rounded=0;" vertex="1" parent="1">
          <mxGeometry x="60" y="245" width="110" height="30" as="geometry" />
        </mxCell>
      </root>
    </mxGraphModel>
  </diagram>
</mxfile>
